PathFileType        4      (X/Y/Z)      C:\Users\pc\Desktop\IMUTRC\Sujet_07\Sujet_07_velo_100.trc         
DataRate	CameraRate	NumFrames	NumMarkers	Units	OrigDataRate	OrigDataStartFrame	OrigNumFrames
60.0	60.0	4	64	mm	60.0	467	933
Frame#	Time	pHipOrigin			pRightASI			pLeftASI			pRightCSI			pLeftCSI			pRightIschialTub			pLeftIschialTub			pSacrum			pL5SpinalProcess			pL3SpinalProcess			pT12SpinalProcess			pIJ			pT4SpinalProcess			pT8SpinalProcess			pPX			pC7SpinalProcess			pTopOfHead			pRightAuricularis			pLeftAuricularis			pBackOfHead			pRightAcromion			pLeftAcromion			pRightArmLatEpicondyle			pRightArmMedEpicondyle			pLeftArmLatEpicondyle			pLeftArmMedEpicondyle			pRightUlnarStyloid			pRightRadialStyloid			pRightOlecranon			pLeftUlnarStyloid			pLeftRadialStyloid			pLeftOlecranon			pRightTopOfHand			pRightPinky			pRightBallHand			pLeftTopOfHand			pLeftPinky			pLeftBallHand			pRightGreaterTrochanter			pRightKneeLatEpicondyle			pRightKneeMedEpicondyle			pRightPatella			pLeftGreaterTrochanter			pLeftKneeLatEpicondyle			pLeftKneeMedEpicondyle			pLeftPatella			pRightTibialTub			pRightLatMalleolus			pRightMedMalleolus			pLeftTibialTub			pLeftLatMalleolus			pLeftMedMalleolus			pRightHeelFoot			pRightFirstMetatarsal			pRightFifthMetatarsal			pRightPivotFoot			pRightHeelCenter			pRightToe			pLeftHeelFoot			pLeftFirstMetatarsal			pLeftFifthMetatarsal			pLeftPivotFoot			pLeftHeelCenter			pLeftToe			
		X1	Y1	Z1	X2	Y2	Z2	X3	Y3	Z3	X4	Y4	Z4	X5	Y5	Z5	X6	Y6	Z6	X7	Y7	Z7	X8	Y8	Z8	X9	Y9	Z9	X10	Y10	Z10	X11	Y11	Z11	X12	Y12	Z12	X13	Y13	Z13	X14	Y14	Z14	X15	Y15	Z15	X16	Y16	Z16	X17	Y17	Z17	X18	Y18	Z18	X19	Y19	Z19	X20	Y20	Z20	X21	Y21	Z21	X22	Y22	Z22	X23	Y23	Z23	X24	Y24	Z24	X25	Y25	Z25	X26	Y26	Z26	X27	Y27	Z27	X28	Y28	Z28	X29	Y29	Z29	X30	Y30	Z30	X31	Y31	Z31	X32	Y32	Z32	X33	Y33	Z33	X34	Y34	Z34	X35	Y35	Z35	X36	Y36	Z36	X37	Y37	Z37	X38	Y38	Z38	X39	Y39	Z39	X40	Y40	Z40	X41	Y41	Z41	X42	Y42	Z42	X43	Y43	Z43	X44	Y44	Z44	X45	Y45	Z45	X46	Y46	Z46	X47	Y47	Z47	X48	Y48	Z48	X49	Y49	Z49	X50	Y50	Z50	X51	Y51	Z51	X52	Y52	Z52	X53	Y53	Z53	X54	Y54	Z54	X55	Y55	Z55	X56	Y56	Z56	X57	Y57	Z57	X58	Y58	Z58	X59	Y59	Z59	X60	Y60	Z60	X61	Y61	Z61	X62	Y62	Z62	X63	Y63	Z63	X64	Y64	Z64	
467	7.767	0.0	1249.97763	7.653905517926474E-14	108.49155063484508	1331.43819	132.43426210851695	98.47900705438006	1309.23517	-150.81812369712014	90.02407893135721	1411.78487	101.45044138629845	81.74938893666354	1393.51751	-131.49507512601028	-74.17982932703114	1221.01718	63.58211329120588	-78.33076301749348	1211.8835	-52.94135865806399	-57.02485214221971	1296.53713	-1.6262987955724477	20.31348574395704	1380.74521	-9.193849387359593	109.46763067962674	1465.84438	-18.514058121299048	194.46282565169645	1540.10195	-26.719894212146574	460.2605060305659	1503.64148	-55.21296116230189	374.59627711475554	1635.52292	-43.62060428890733	287.9608429469714	1600.77038	-35.2470705745165	343.98216882224517	1451.2899	-44.0608732978637	429.3246621857437	1656.16653	-47.52168784805296	702.2140735871697	1666.48833	-65.57519324288855	607.9627161397249	1630.25064	8.712386538421285	597.9595280619028	1653.419	-133.9123834731237	589.7326400124773	1696.33987	-52.8311753833375	439.112122805042	1583.69114	135.27879308224297	412.4923518570092	1619.40903	-232.6746111499184	471.55833850552193	1302.77476	123.48631897567269	441.7490790036969	1300.10149	66.40439096883892	414.3838316436254	1321.85896	-260.30723024182726	373.85823958435816	1312.94805	-210.90696578836642	568.8087459094896	1065.59609	62.420112295227945	616.2554736159855	1091.6605	61.77478925469135	432.26895423881933	1292.45296	97.97298872369896	462.41213694484884	1063.29411	-238.49449522497585	512.5886362550285	1079.9278	-250.25408137615187	369.3994591238877	1313.69063	-231.40201149103632	751.0595707892988	1026.46236	169.8720438820605	675.3960298794369	1006.85836	115.72676101850766	625.1539012107131	1048.07131	69.82764055315018	607.0946656690139	999.87815	-385.87396594277334	549.8744509813163	990.22466	-310.5280668836821	515.8811931106864	1038.71485	-257.44211713696035	34.37589633174244	1242.10633	173.33094099770162	413.5558602586786	1013.6158	138.70187826411387	413.0539638674931	1012.87322	52.83834831378275	435.19484975961825	1056.01687	92.45964902403696	-7.337863543179608	1215.67064	-176.49872752420552	168.54091613921173	809.33323	-210.08958990732015	189.8069882428415	804.35797	-127.07178726823004	221.40144007187354	829.08574	-175.11180307340098	437.6762428871091	960.52164	99.8944500536706	145.02112013667008	678.04585	177.8762717527375	143.09995370200738	669.65474	112.8868696273692	232.51127215776648	767.82325	-181.7308167097265	116.70785712448287	371.13932	-208.97563818209377	133.4010892933283	367.27793	-145.66126444107726	74.79023441356622	613.81305	146.84617408571708	230.0940064843785	546.83273	135.67443025197375	221.15315370866534	559.01097	213.68532152250228	246.35878606338343	544.38223	177.3051256472285	113.65045214668767	603.19422	152.9047825787616	330.01553152743645	508.51582	192.50669210763147	59.49016722828853	307.94613	-156.95099219016473	218.06622662719326	248.16879	-158.34492393312794	196.90939635259554	245.12423000000004	-234.86875897041332	228.03720879515328	238.29253	-200.862751649398	97.49218657705823	297.25304	-167.0792404924494	310.4662803828712	202.1291	-222.29723166005775	
468	7.783	0.0	1249.97763	7.653905517926474E-14	108.61289324861409	1331.88373	132.07559053634583	98.59039205438006	1308.4926	-151.0110481763212	90.2296254986412	1412.0819	100.79740428844124	82.01924655043254	1392.77494	-132.1109822238675	-74.25408932703114	1221.38847	63.710735384175955	-78.37783697100845	1211.73499	-52.71130417886293	-56.91346714221971	1296.61139	-1.8192232747735084	20.50908335772605	1380.67095	-9.681134392246745	109.81901911234276	1465.54735	-18.8256607399552	194.99719827035258	1539.65641	-26.75435473783266	460.8021581284231	1502.52762	-54.814490115816874	375.5410152639849	1634.63183	-42.73217876322123	288.73254952402965	1600.17632	-34.8015255745165	344.29643091521524	1450.47307	-44.30815120978076	430.3509398141742	1655.20118	-46.328952843165794	703.1760488293692	1665.00318	-64.41958323800141	608.8975053354393	1628.61697	9.766564157077468	598.8200622576173	1652.37939	-132.72959242175156	590.7489600271388	1695.00324	-51.47269328548027	439.0623793772131	1581.90896	136.1075312265852	414.3029494903268	1618.96349	-231.8007582428885	471.4124879798358	1301.28961	123.14487949647163	441.6774884780108	1298.83911	65.9343293966678	415.2443571790858	1321.41341	-259.12444419045505	374.6544627335876	1312.65102	-209.76130473699428	568.3068882859463	1064.11094	61.35865519737076	615.8278709924422	1090.17535	60.584718724118126	432.1231037131332	1291.11633	97.6315492444979	461.7988943213055	1062.55153	-239.36302784363198	512.0867736314852	1078.96246	-251.3155298137551	370.25998831960214	1313.3936	-230.2192117794101	750.9289981657554	1024.60592	168.16750230011505	675.0526398696625	1005.22469	114.24232996224828	624.7634285871698	1046.58616	68.57325897609188	605.8953564684124	999.28409	-387.50958147334666	548.8680712599157	989.48209	-312.05230607450926	515.186411007942	1037.82376	-258.6149592348176	35.04883133662959	1243.51723	173.20498337904547	419.55524971614113	1024.16037	137.96411090939574	418.7861738457545	1023.19502	52.11780939178062	439.9425221143364	1067.00699	91.51367928797501	-7.854999068865695	1214.70529	-176.19708251931834	161.66499564015135	805.39758	-206.94254625414325	182.99537879026616	800.79361	-123.88761361505313	214.90408905201423	824.63029	-172.17492099239522	446.20162759165817	972.18007	98.64293059132093	168.30596214757304	674.77852	175.71414234363922	166.6891051921114	666.7587	110.64320073906988	223.83665716973076	761.9569	-177.99308281435012	90.70000168575102	370.471	-201.35453116630364	106.98748332891036	366.60961	-137.93143689960104	102.5701282583884	605.71898	144.62116651761514	262.40075321449206	550.10006	134.51958348815737	252.23536438251955	562.05553	212.42371342382702	278.62840779349693	549.06045	176.21458126964308	142.14769413585208	597.92193	150.92245157794363	364.54857403032264	519.50594	191.95124795269695	31.374689156239057	308.68871	-149.6892756902864	188.2117327872582	244.38165	-151.4870037681084	166.8891640799445	242.45096	-228.0207914191628	197.78692204330116	234.43114	-194.06185805166245	69.08234297932268	297.03027	-159.90172794608603	279.16714996099074	196.03998	-215.7589075366361	
469	7.8	0.0	1249.97763	7.653905517926474E-14	109.0756666813301	1332.1065	131.5710634384886	98.21448338923886	1308.12131	-151.39957526929126	90.66522654512625	1412.23042	100.191441144099	81.71759288529135	1392.47791	-132.6281227495536	-74.07110880134505	1221.53699	63.98786381689198	-78.52635197100845	1211.73499	-52.45406865317684	-56.84915609573467	1296.61139	-1.7820932747735072	20.620468357726047	1380.67095	-9.874058871447803	110.03184515882779	1465.4731	-19.0457662656413	195.39299118226967	1539.35937	-26.69732817054869	461.08656604034024	1501.71079	-54.56453906933179	376.19137922727424	1634.03777	-41.9279621910501	289.33850900811785	1599.73078	-34.36593818828551	344.4449459152152	1449.95326	-44.56538673546686	430.99136348420257	1654.38435	-45.358979178024626	703.8337009321135	1664.11209	-63.18243009365911	609.5279813916986	1627.50311	10.90226759468068	599.5148443603616	1651.71107	-131.5567503238943	591.4337981763682	1694.03789	-50.13410775490707	438.84688885641424	1580.64658	136.92631175715846	415.61630816524234	1618.88923	-230.95674219640344	471.1552524541497	1300.17575	122.99636449647163	441.3831229523247	1297.87377	65.85012544315282	415.8847808491141	1321.19064	-258.15447052531385	375.23058035713086	1312.65102	-208.82846973210715	567.8123188018582	1063.07134	60.73013467168466	615.3704228480999	1089.06149	59.891882151946966	431.82873818744713	1290.00246	97.54734529098293	461.17570274424725	1062.18025	-240.0658083693181	511.39927100794193	1078.3684	-252.05544033944113	370.8904643758615	1313.3936	-229.083508341807	750.6300176351822	1023.19502	167.0516917695418	674.6150932926042	1003.96231	113.21800286439111	624.3159380565966	1045.39804	67.71467531095068	604.8047727934968	998.98706	-388.7394551384877	547.9332770642013	989.03654	-313.1064750329114	514.5088523379136	1037.37822	-259.52061319321973	35.481762908800704	1244.2598	173.1977038998444	422.83305497300205	1029.95246	138.2273856671963	422.06397410261536	1028.91286	52.3810928098352	442.6587773663101	1073.02185	91.70998718523063	-8.832252213207937	1214.03697	-175.98959042146114	159.79932563037704	804.28371	-205.79031100705663	181.70120273889398	800.05103	-122.83415494013765	213.3354490422399	823.59068	-171.53715679668076	452.51989914697793	979.3088	98.68948324148995	191.35807154470703	666.83296	174.1036176461672	190.17415116141652	658.96165	109.02538790214278	219.78643139207088	758.76382	-176.47294598531812	66.3794730565026	374.48091	-194.13117991351191	82.50120260669186	370.69378	-130.71803460032424	130.1915631496956	593.68925	142.8191379079153	293.28009545563026	548.68917	133.31233382219818	282.1202213863454	559.8278	211.15676271627	309.40630898815016	548.61491	175.03451265016895	170.0906669390764	588.49122	149.30606296824382	397.1669233790924	524.55546	191.1477896215966	5.28529423830615	315.14912	-142.3724781536973	159.89604575680664	245.79255	-144.76959518014715	138.47203600300784	244.8272	-221.2762017847165	169.17686082690943	235.76778	-187.42865841721616	42.634276489218635	302.30256	-152.70627302326596	249.13963320913865	194.85186	-209.34386289730264	
470	7.817	0.0	1249.97763	7.653905517926474E-14	109.7041872070162	1332.1065	131.07649395440038	97.35128837946456	1308.19557	-151.98367765552226	91.09086997784226	1412.23042	99.75122509272681	80.90875630823307	1392.55216	-133.00935670306853	-73.75951118268888	1221.53699	64.33926090986203	-78.85056301749349	1211.66073	-52.041038648289685	-56.93336004924964	1296.61139	-1.4877277490874108	20.49184626475598	1380.67095	-9.948318871447803	109.96753411234276	1465.4731	-19.0828962656413	195.44735827523974	1539.35937	-26.49445473783266	461.0666731333103	1501.26524	-54.23304354364577	376.37169893890047	1633.66649	-41.05214509319289	289.43728058028904	1599.508	-33.79443556962934	344.2891514360142	1449.73049	-44.74108278195189	431.29034401477577	1653.9388	-44.243168647451355	704.0013985556569	1664.03783	-61.54219089794465	609.6512695360409	1626.9833	12.173886264708997	599.868186983905	1651.63682	-130.23805770035102	591.5471423671954	1693.6666	-48.69674565216267	438.2627728099291	1580.05252	137.78951042718674	416.3953028817557	1619.18626	-230.07826062423234	470.6553453611796	1299.58169	123.56518898055982	440.78178347312365	1297.2797	66.44613597372609	416.34951347265746	1321.56193	-257.0287110412257	375.41089140850306	1313.09657	-207.9526576342499	567.3323132761722	1062.55153	60.96746863008679	614.8261012759287	1088.54168	60.09209477060316	431.2917097547311	1289.48266	98.18048582155619	460.52266064639	1062.32876	-240.27134627634805	510.78336391008474	1078.44265	-252.32529795321017	371.1993975202038	1313.83914	-228.13343624394977	750.3456010630111	1022.45245	166.80173572305677	674.192105673948	1003.29399	113.05953891087611	623.7444354379404	1044.87823	67.81344688312181	603.9959362164386	999.06131	-389.1206890920028	547.1615704871431	989.18506	-313.55202003291146	513.8286378538254	1037.45248	-259.82758714673463	35.57324634151675	1244.18554	173.33626994632945	423.3322431222315	1030.24949	139.8875264301947	422.9960988240159	1029.28414	54.033945433378484	443.3137649947406	1073.39314	93.54581533446003	-10.40818036243735	1213.59143	-175.78476279791784	164.01529484075292	806.43718	-207.3005038825737	187.4758716657832	802.87282	-124.81635491839906	217.8139827269297	826.7095	-174.09618468197215	456.7026430787543	981.16524	100.50417823660278	214.10782699321317	653.61511	174.20490534958762	213.62401766129486	645.89232	109.10216769364612	221.65476587615908	758.68957	-178.22385623729184	44.582261539772844	384.35717	-186.8229021032105	61.312615048364236	380.79281	-123.572844408679	157.41185752020385	577.57536	142.15744506121388	322.8036064129711	541.93173	132.5227328262674	310.90649129231406	551.58521	210.45598067874133	338.82837889900594	542.37727	174.27209270072316	197.54101578878573	574.60506	148.69144407505735	427.8877930064616	523.07031	190.3635225742936	-18.033473334682945	328.58974	-134.65650794739062	133.62367531318762	253.06979	-137.72993473652815	111.89534741993376	253.06979	-214.15500686189642	142.30581537840328	242.74799	-180.39166244791102	18.625336818372332	314.25803	-145.13152967750418	220.42814460651596	198.71325	-202.68348587662533	
